<svg aria-hidden="true" style="position: absolute; width: 0; height: 0; overflow: hidden;" version="1.1" xmlns="http://www.w3.org/2000/svg" xmlns:xlink="http://www.w3.org/1999/xlink">
<defs>
<symbol id="icon-arrow-up" viewBox="0 0 32 32">
<path  style="fill: var(--color1, #008cef)" d="M16.154 2.406c-0.255 0-0.5 0.101-0.681 0.282s-0.282 0.425-0.282 0.681v22.708l-6.058-6.060c-0.181-0.181-0.426-0.282-0.682-0.282s-0.501 0.102-0.682 0.282c-0.181 0.181-0.282 0.426-0.282 0.682s0.102 0.501 0.282 0.682l7.702 7.702c0.089 0.090 0.196 0.161 0.313 0.209s0.242 0.074 0.369 0.074c0.127 0 0.252-0.025 0.369-0.074s0.223-0.12 0.313-0.209l7.702-7.702c0.090-0.090 0.161-0.196 0.209-0.313s0.073-0.242 0.073-0.369c0-0.256-0.101-0.501-0.282-0.682s-0.426-0.282-0.682-0.282-0.501 0.102-0.682 0.282l-6.058 6.060v-22.708c0-0.255-0.101-0.5-0.282-0.681s-0.425-0.282-0.681-0.282z"></path>
</symbol>
<symbol id="icon-burger" viewBox="0 0 32 32">
<path style="fill: var(--color2, #487996)" d="M32 8c0 0.552-0.448 1-1 1h-30c-0.552 0-1-0.448-1-1s0.448-1 1-1h30c0.552 0 1 0.448 1 1zM32 24c0 0.552-0.448 1-1 1h-30c-0.552 0-1-0.448-1-1s0.448-1 1-1h30c0.552 0 1 0.448 1 1zM32 15.992c0 0.548-0.444 0.992-0.992 0.992h-30.016c-0.548 0-0.992-0.444-0.992-0.992s0.444-0.992 0.992-0.992h30.016c0.548 0 0.992 0.444 0.992 0.992z"></path>
</symbol>
<symbol id="icon-group" viewBox="0 0 31 32">
<path fill="none" stroke="#487996" style="stroke: var(--color2, #487996)" stroke-linejoin="round" stroke-linecap="round" stroke-miterlimit="4" stroke-width="1" d="M15.5 0.585v4.286"></path>
<path fill="none" stroke="#487996" style="stroke: var(--color2, #487996)" stroke-linejoin="round" stroke-linecap="round" stroke-miterlimit="4" stroke-width="1" d="M26.214 4.871l-3.214 3.214"></path>
<path fill="none" stroke="#487996" style="stroke: var(--color2, #487996)" stroke-linejoin="round" stroke-linecap="round" stroke-miterlimit="4" stroke-width="1" d="M4.786 4.871l3.214 3.214"></path>
<path fill="none" stroke="#487996" style="stroke: var(--color2, #487996)" stroke-linejoin="round" stroke-linecap="round" stroke-miterlimit="4" stroke-width="1" d="M15.5 30.585v-4.286"></path>
<path fill="none" stroke="#487996" style="stroke: var(--color2, #487996)" stroke-linejoin="round" stroke-linecap="round" stroke-miterlimit="4" stroke-width="1" d="M26.214 26.299l-3.214-3.214"></path>
<path fill="none" stroke="#487996" style="stroke: var(--color2, #487996)" stroke-linejoin="round" stroke-linecap="round" stroke-miterlimit="4" stroke-width="1" d="M4.786 26.299l3.214-3.214"></path>
<path fill="none" stroke="#487996" style="stroke: var(--color2, #487996)" stroke-linejoin="round" stroke-linecap="round" stroke-miterlimit="4" stroke-width="1" d="M0.5 15.585h4.286"></path>
<path fill="none" stroke="#487996" style="stroke: var(--color2, #487996)" stroke-linejoin="round" stroke-linecap="round" stroke-miterlimit="4" stroke-width="1" d="M26.214 15.585h4.286"></path>
</symbol>
<symbol id="icon-menu-close" viewBox="0 0 32 32">
<path  style="fill: var(--color2, #487996)" d="M18.41 16l12.462-12.461c0.28-0.327 0.426-0.748 0.41-1.178s-0.195-0.838-0.499-1.143c-0.305-0.304-0.712-0.483-1.143-0.499s-0.851 0.13-1.178 0.41l-12.462 12.462-12.462-12.479c-0.327-0.28-0.748-0.426-1.178-0.41s-0.838 0.195-1.143 0.499c-0.304 0.304-0.483 0.713-0.499 1.143s0.13 0.851 0.41 1.178l12.462 12.479-12.479 12.462c-0.179 0.153-0.324 0.342-0.427 0.554s-0.16 0.443-0.169 0.679c-0.009 0.235 0.031 0.47 0.117 0.689s0.216 0.419 0.383 0.585c0.167 0.167 0.366 0.297 0.585 0.383s0.454 0.126 0.69 0.117 0.466-0.067 0.679-0.169c0.212-0.103 0.401-0.248 0.554-0.427l12.479-12.462 12.462 12.462c0.327 0.28 0.748 0.426 1.178 0.41s0.838-0.195 1.143-0.499c0.305-0.304 0.483-0.712 0.499-1.143s-0.13-0.851-0.41-1.178l-12.462-12.462z"></path>
</symbol>
<symbol id="icon-paper-clip" viewBox="0 0 32 32">
<path d="M5.727 30.545c-1.354 0-2.556-0.508-3.606-1.525-1.111-1.075-1.667-2.38-1.667-3.915s0.556-2.84 1.667-3.915l17.424-17.889c0.889-0.88 1.914-1.447 3.076-1.701s2.338-0.186 3.53 0.205c1.192 0.391 2.293 1.065 3.303 2.023 0.323 0.332 0.621 0.699 0.894 1.1s0.495 0.821 0.667 1.261c0.172 0.44 0.303 0.904 0.394 1.393s0.136 0.978 0.136 1.466c-0.040 2.072-0.768 3.803-2.182 5.191l-13.182 13.548c-0.182 0.195-0.404 0.298-0.667 0.308s-0.49-0.073-0.682-0.249c-0.192-0.176-0.293-0.396-0.303-0.66s0.076-0.494 0.258-0.689l13.182-13.548c1.071-1.056 1.616-2.366 1.636-3.93s-0.495-2.845-1.545-3.842c-0.647-0.645-1.364-1.134-2.152-1.466s-1.636-0.44-2.545-0.323c-0.909 0.117-1.717 0.518-2.424 1.202l-17.424 17.889c-0.747 0.724-1.121 1.593-1.121 2.61s0.374 1.887 1.121 2.61c0.343 0.332 0.717 0.582 1.121 0.748s0.828 0.23 1.273 0.191c0.889-0.039 1.717-0.44 2.485-1.202l13.849-14.252c0.101-0.098 0.197-0.2 0.288-0.308s0.187-0.235 0.288-0.381c0.101-0.147 0.182-0.303 0.242-0.469s0.101-0.332 0.121-0.499-0.010-0.337-0.091-0.513c-0.081-0.176-0.202-0.342-0.364-0.499-0.384-0.391-0.758-0.567-1.121-0.528-0.384 0.039-0.818 0.283-1.303 0.733l-10.424 10.733c-0.121 0.117-0.263 0.2-0.424 0.249s-0.328 0.054-0.5 0.015c-0.172-0.039-0.318-0.117-0.439-0.235-0.202-0.176-0.303-0.391-0.303-0.645s0.091-0.479 0.273-0.674l10.424-10.762c0.828-0.782 1.667-1.212 2.515-1.29 0.97-0.078 1.858 0.274 2.667 1.056 0.768 0.723 1.106 1.574 1.015 2.551s-0.581 1.896-1.47 2.757l-13.848 14.282c-1.131 1.095-2.394 1.681-3.788 1.759-0.040 0-0.086 0.005-0.136 0.015s-0.096 0.015-0.136 0.015z"></path>
</symbol>
<symbol id="icon-phone" viewBox="0 0 32 32">
<path  style="fill: var(--color1, #008cef)" d="M27.247 21.071l-3.951-0.451c-0.465-0.055-0.936-0.003-1.377 0.15s-0.843 0.405-1.174 0.736l-2.862 2.862c-4.416-2.246-8.005-5.835-10.251-10.251l2.878-2.878c0.669-0.669 0.996-1.602 0.887-2.551l-0.451-3.92c-0.088-0.759-0.452-1.459-1.023-1.966s-1.308-0.788-2.072-0.787h-2.691c-1.758 0-3.22 1.462-3.111 3.22 0.824 13.284 11.449 23.893 24.718 24.718 1.758 0.109 3.22-1.353 3.22-3.111v-2.691c0.015-1.571-1.167-2.893-2.738-3.080z"></path>
</symbol>
<symbol id="icon-nav-arrow" viewBox="0 0 107 32">
<path style="fill: var(--color1, #008cef)" d="M53.333 32l-46.188-32h92.376l-46.188 32z"></path>
</symbol>
</defs>
</svg>
